<svg width="346" height="324" viewBox="0 0 346 324" fill="none" xmlns="http://www.w3.org/2000/svg">
<path d="M340.213 323.489H5.27735C3.87818 323.488 2.53675 322.931 1.54739 321.942C0.558023 320.953 0.00152726 319.611 0 318.212V172.557C0.00152726 171.158 0.558023 169.816 1.54739 168.827C2.53675 167.838 3.87818 167.281 5.27735 167.28H340.213C341.612 167.281 342.954 167.838 343.943 168.827C344.933 169.816 345.489 171.158 345.491 172.557V318.212C345.489 319.611 344.933 320.953 343.943 321.942C342.954 322.931 341.612 323.488 340.213 323.489V323.489ZM5.27735 169.391C4.43785 169.392 3.63299 169.725 3.03937 170.319C2.44575 170.913 2.11186 171.718 2.11094 172.557V318.212C2.11185 319.051 2.44575 319.856 3.03937 320.45C3.63299 321.044 4.43785 321.377 5.27735 321.378H340.213C341.053 321.377 341.858 321.044 342.451 320.45C343.045 319.856 343.379 319.051 343.38 318.212V172.557C343.379 171.718 343.045 170.913 342.451 170.319C341.858 169.725 341.053 169.392 340.213 169.391H5.27735Z" fill="#E6E6E6"/>
<path d="M18.9984 185.223C18.1587 185.223 17.3533 185.556 16.7594 186.15C16.1656 186.744 15.832 187.549 15.832 188.389C15.832 189.229 16.1656 190.034 16.7594 190.628C17.3533 191.222 18.1587 191.556 18.9984 191.556H63.3282C64.168 191.556 64.9734 191.222 65.5672 190.628C66.161 190.034 66.4946 189.229 66.4946 188.389C66.4946 187.549 66.161 186.744 65.5672 186.15C64.9734 185.556 64.168 185.223 63.3282 185.223H18.9984Z" fill="#E6E6E6"/>
<path d="M322.474 207.243V265.963H23.5437V235.046C25.6137 233.717 27.6962 232.394 29.7975 231.114C38.7717 225.622 48.3775 220.486 58.8463 218.583C63.7973 217.66 68.8703 217.596 73.8428 218.396C79.096 219.263 84.1241 221.073 89.1021 222.889C94.0113 224.686 98.933 226.54 104.067 227.582C109.071 228.564 114.207 228.666 119.245 227.882C128.857 226.44 137.888 222.577 146.881 219.082C155.93 215.569 165.254 212.249 175.048 211.812C184.716 211.375 194.266 213.659 203.44 216.492C222.145 222.265 241.244 230.827 261.05 224.955C281.162 219.001 299.661 201.814 321.949 206.913C322.16 206.952 322.348 207.07 322.474 207.243Z" fill="#BBBBBB"/>
<path d="M322.475 208.267C322.379 208.446 322.226 208.588 322.041 208.669C321.855 208.751 321.647 208.767 321.451 208.716C318.795 208.107 316.075 207.827 313.351 207.88C291.427 208.267 274.571 225.916 253.134 228.556C233.806 230.933 215.615 221.535 197.442 216.623C187.999 214.071 178.264 212.717 168.547 214.452C158.905 216.168 149.856 220.112 140.77 223.613C132.02 226.983 122.927 230.116 113.454 230.272C103.038 230.447 93.6584 226.153 83.9977 222.883C78.9739 221.179 73.8191 219.831 68.4958 219.7C63.3075 219.638 58.145 220.437 53.2185 222.065C42.9525 225.329 33.7037 231.145 24.6983 236.924C24.544 237.033 24.3561 237.084 24.1679 237.068C23.9735 237.042 23.7916 236.957 23.6464 236.826C23.5012 236.694 23.3995 236.521 23.3548 236.33C23.3101 236.139 23.3245 235.939 23.3962 235.757C23.4678 235.574 23.5933 235.418 23.756 235.308L24.1679 235.046C26.2335 233.717 28.3117 232.394 30.4086 231.114C39.364 225.622 48.9498 220.486 59.3968 218.583C64.3373 217.66 69.4 217.596 74.362 218.396C79.6043 219.263 84.6218 221.073 89.5894 222.889C94.4884 224.686 99.3998 226.54 104.523 227.582C109.516 228.564 114.642 228.666 119.67 227.882C129.262 226.44 138.273 222.577 147.247 219.082C156.278 215.569 165.583 212.249 175.356 211.812C185.004 211.375 194.533 213.659 203.689 216.492C222.355 222.265 241.414 230.827 261.178 224.955C281.248 219.001 299.708 201.814 321.95 206.913C322.161 206.952 322.349 207.07 322.475 207.243C322.571 207.397 322.622 207.574 322.622 207.755C322.622 207.936 322.571 208.114 322.475 208.267V208.267Z" fill="white"/>
<path d="M64.7325 223.526C67.1452 223.526 69.101 221.57 69.101 219.157C69.101 216.744 67.1452 214.789 64.7325 214.789C62.3199 214.789 60.364 216.744 60.364 219.157C60.364 221.57 62.3199 223.526 64.7325 223.526Z" fill="white"/>
<path d="M175.193 217.909C177.606 217.909 179.562 215.953 179.562 213.54C179.562 211.128 177.606 209.172 175.193 209.172C172.781 209.172 170.825 211.128 170.825 213.54C170.825 215.953 172.781 217.909 175.193 217.909Z" fill="white"/>
<path d="M309.993 212.292C312.406 212.292 314.362 210.336 314.362 207.924C314.362 205.511 312.406 203.555 309.993 203.555C307.58 203.555 305.625 205.511 305.625 207.924C305.625 210.336 307.58 212.292 309.993 212.292Z" fill="white"/>
<path d="M62.2727 290.77C61.4329 290.77 60.6275 291.103 60.0337 291.697C59.4399 292.291 59.1063 293.096 59.1063 293.936C59.1063 294.776 59.4399 295.581 60.0337 296.175C60.6275 296.769 61.4329 297.103 62.2727 297.103H106.602C107.442 297.103 108.248 296.769 108.841 296.175C109.435 295.581 109.769 294.776 109.769 293.936C109.769 293.096 109.435 292.291 108.841 291.697C108.248 291.103 107.442 290.77 106.602 290.77H62.2727Z" fill="white"/>
<path d="M33.775 305.546C40.3814 305.546 45.737 300.191 45.737 293.584C45.737 286.978 40.3814 281.622 33.775 281.622C27.1686 281.622 21.813 286.978 21.813 293.584C21.813 300.191 27.1686 305.546 33.775 305.546Z" fill="#BBBBBB"/>
<path d="M169.227 290.77C168.387 290.77 167.582 291.103 166.988 291.697C166.394 292.291 166.061 293.096 166.061 293.936C166.061 294.776 166.394 295.581 166.988 296.175C167.582 296.769 168.387 297.103 169.227 297.103H213.557C214.396 297.103 215.202 296.769 215.796 296.175C216.39 295.581 216.723 294.776 216.723 293.936C216.723 293.096 216.39 292.291 215.796 291.697C215.202 291.103 214.396 290.77 213.557 290.77H169.227Z" fill="white"/>
<path d="M140.729 305.546C147.336 305.546 152.691 300.191 152.691 293.584C152.691 286.978 147.336 281.622 140.729 281.622C134.123 281.622 128.767 286.978 128.767 293.584C128.767 300.191 134.123 305.546 140.729 305.546Z" fill="#BBBBBB"/>
<path d="M276.181 290.77C275.342 290.77 274.536 291.103 273.942 291.697C273.348 292.291 273.015 293.096 273.015 293.936C273.015 294.776 273.348 295.581 273.942 296.175C274.536 296.769 275.342 297.103 276.181 297.103H320.511C321.351 297.103 322.156 296.769 322.75 296.175C323.344 295.581 323.677 294.776 323.677 293.936C323.677 293.096 323.344 292.291 322.75 291.697C322.156 291.103 321.351 290.77 320.511 290.77H276.181Z" fill="white"/>
<path d="M247.684 305.546C254.29 305.546 259.646 300.191 259.646 293.584C259.646 286.978 254.29 281.622 247.684 281.622C241.077 281.622 235.722 286.978 235.722 293.584C235.722 300.191 241.077 305.546 247.684 305.546Z" fill="#BBBBBB"/>
<path d="M317.288 127.953H152.045C148.823 127.953 146.213 126.093 146.209 123.801V87.8855C146.213 85.5937 148.823 83.7339 152.045 83.7339H317.288C320.509 83.7339 323.12 85.5937 323.123 87.8855V123.8C323.12 126.092 320.509 127.95 317.288 127.953ZM152.045 85.3931C150.112 85.3931 148.546 86.5091 148.543 87.8841V123.799C148.543 125.174 150.112 126.288 152.045 126.29H317.288C319.221 126.29 320.787 125.174 320.789 123.799V87.8855C320.789 86.5105 319.221 85.396 317.288 85.3946L152.045 85.3931Z" fill="#E6E6E6"/>
<path d="M189.407 104.145C188.474 104.146 187.58 104.517 186.92 105.176C186.261 105.836 185.89 106.73 185.889 107.663V132.291C185.89 133.223 186.261 134.118 186.92 134.777C187.58 135.437 188.474 135.808 189.407 135.809H315.36C316.292 135.808 317.187 135.437 317.846 134.777C318.506 134.118 318.877 133.223 318.878 132.291V107.663C318.877 106.73 318.506 105.836 317.846 105.176C317.187 104.517 316.292 104.146 315.36 104.145H189.407Z" fill="white"/>
<path d="M206.998 128.069C211.273 128.069 214.738 124.603 214.738 120.329C214.738 116.054 211.273 112.589 206.998 112.589C202.723 112.589 199.258 116.054 199.258 120.329C199.258 124.603 202.723 128.069 206.998 128.069Z" fill="#BBBBBB"/>
<path d="M242.273 116.969C241.434 116.969 240.628 117.303 240.034 117.896C239.441 118.49 239.107 119.296 239.107 120.135C239.107 120.975 239.441 121.781 240.034 122.374C240.628 122.968 241.434 123.302 242.273 123.302H286.603C287.443 123.302 288.248 122.968 288.842 122.374C289.436 121.781 289.77 120.975 289.77 120.135C289.77 119.296 289.436 118.49 288.842 117.896C288.248 117.303 287.443 116.969 286.603 116.969H242.273Z" fill="#BBBBBB"/>
<path d="M193.446 44.2186H28.2029C24.9816 44.2186 22.3711 42.3588 22.3676 40.0671V4.15152C22.3711 1.85974 24.9816 0 28.2029 0H193.446C196.667 0 199.278 1.85974 199.281 4.15152V40.0664C199.278 42.3581 196.667 44.2158 193.446 44.2186ZM28.2029 1.6592C26.27 1.6592 24.7036 2.77518 24.7015 4.15011V40.0649C24.7015 41.4399 26.27 42.5544 28.2029 42.5559H193.446C195.379 42.5559 196.945 41.4399 196.947 40.0649V4.15152C196.947 2.7766 195.379 1.66201 193.446 1.66061L28.2029 1.6592Z" fill="#E6E6E6"/>
<path d="M65.5651 20.4108C64.6324 20.4119 63.7381 20.7829 63.0786 21.4424C62.419 22.102 62.048 22.9962 62.0469 23.929V48.5566C62.048 49.4894 62.419 50.3836 63.0786 51.0432C63.7381 51.7028 64.6324 52.0738 65.5651 52.0749H191.518C192.451 52.0738 193.345 51.7028 194.004 51.0432C194.664 50.3836 195.035 49.4894 195.036 48.5566V23.929C195.035 22.9962 194.664 22.102 194.004 21.4424C193.345 20.7829 192.451 20.4119 191.518 20.4108H65.5651Z" fill="#EEEEEE"/>
<path d="M83.1564 44.3348C87.4311 44.3348 90.8965 40.8694 90.8965 36.5947C90.8965 32.3199 87.4311 28.8546 83.1564 28.8546C78.8816 28.8546 75.4163 32.3199 75.4163 36.5947C75.4163 40.8694 78.8816 44.3348 83.1564 44.3348Z" fill="#BBBBBB"/>
<path d="M118.431 33.235C117.592 33.235 116.786 33.5686 116.192 34.1625C115.599 34.7563 115.265 35.5617 115.265 36.4015C115.265 37.2412 115.599 38.0466 116.192 38.6404C116.786 39.2343 117.592 39.5679 118.431 39.5679H162.761C163.601 39.5679 164.406 39.2343 165 38.6404C165.594 38.0466 165.928 37.2412 165.928 36.4015C165.928 35.5617 165.594 34.7563 165 34.1625C164.406 33.5686 163.601 33.235 162.761 33.235H118.431Z" fill="#BBBBBB"/>
</svg>
