<svg width="346" height="206" viewBox="0 0 346 206" fill="none" xmlns="http://www.w3.org/2000/svg">
<path d="M90.391 8.72968C88.3066 8.73203 86.3081 9.56113 84.8342 11.0351C83.3603 12.509 82.5312 14.5074 82.5288 16.5919V160.256C82.5312 162.341 83.3603 164.339 84.8342 165.813C86.3081 167.287 88.3066 168.116 90.391 168.118H93.9648C96.0492 168.116 98.0477 167.287 99.5216 165.813C100.996 164.339 101.825 162.341 101.827 160.256V16.5919C101.825 14.5074 100.996 12.509 99.5216 11.0351C98.0477 9.56113 96.0492 8.73203 93.9648 8.72968H90.391Z" fill="#E6E6E6"/>
<path d="M90.391 11.946C89.1593 11.9475 87.9784 12.4374 87.1074 13.3084C86.2365 14.1793 85.7465 15.3602 85.7451 16.5919V160.256C85.7465 161.488 86.2365 162.669 87.1074 163.54C87.9784 164.411 89.1593 164.901 90.391 164.902H93.9647C95.1964 164.901 96.3773 164.411 97.2483 163.54C98.1192 162.669 98.6092 161.488 98.6106 160.256V16.5919C98.6092 15.3602 98.1192 14.1793 97.2483 13.3084C96.3773 12.4374 95.1964 11.9475 93.9647 11.946H90.391Z" fill="white"/>
<path d="M149 8.72968C146.916 8.73203 144.918 9.56113 143.444 11.0351C141.97 12.509 141.141 14.5074 141.138 16.5919V160.256C141.141 162.341 141.97 164.339 143.444 165.813C144.918 167.287 146.916 168.116 149 168.118H152.574C154.659 168.116 156.657 167.287 158.131 165.813C159.605 164.339 160.434 162.341 160.436 160.256V16.5919C160.434 14.5074 159.605 12.509 158.131 11.0351C156.657 9.56113 154.659 8.73203 152.574 8.72968H149Z" fill="#E6E6E6"/>
<path d="M149 11.946C147.769 11.9475 146.588 12.4374 145.717 13.3084C144.846 14.1793 144.356 15.3602 144.354 16.5919V160.256C144.356 161.488 144.846 162.669 145.717 163.54C146.588 164.411 147.769 164.901 149 164.902H152.574C153.806 164.901 154.987 164.411 155.858 163.54C156.729 162.669 157.219 161.488 157.22 160.256V16.5919C157.219 15.3602 156.729 14.1793 155.858 13.3084C154.987 12.4374 153.806 11.9475 152.574 11.946H149Z" fill="white"/>
<path d="M207.61 8.72968C205.525 8.73203 203.527 9.56113 202.053 11.0351C200.579 12.509 199.75 14.5074 199.747 16.5919V160.256C199.75 162.341 200.579 164.339 202.053 165.813C203.527 167.287 205.525 168.116 207.61 168.118H211.183C213.268 168.116 215.266 167.287 216.74 165.813C218.214 164.339 219.043 162.341 219.046 160.256V16.5919C219.043 14.5074 218.214 12.509 216.74 11.0351C215.266 9.56113 213.268 8.73203 211.183 8.72968H207.61Z" fill="#E6E6E6"/>
<path d="M207.61 11.946C206.378 11.9475 205.197 12.4374 204.326 13.3084C203.455 14.1793 202.965 15.3602 202.964 16.5919V160.256C202.965 161.488 203.455 162.669 204.326 163.54C205.197 164.411 206.378 164.901 207.61 164.902H211.183C212.415 164.901 213.596 164.411 214.467 163.54C215.338 162.669 215.828 161.488 215.829 160.256V16.5919C215.828 15.3602 215.338 14.1793 214.467 13.3084C213.596 12.4374 212.415 11.9475 211.183 11.946H207.61Z" fill="white"/>
<path d="M266.219 8.72968C264.134 8.73203 262.136 9.56113 260.662 11.0351C259.188 12.509 258.359 14.5074 258.357 16.5919V160.256C258.359 162.341 259.188 164.339 260.662 165.813C262.136 167.287 264.134 168.116 266.219 168.118H269.793C271.877 168.116 273.876 167.287 275.349 165.813C276.823 164.339 277.653 162.341 277.655 160.256V16.5919C277.653 14.5074 276.823 12.509 275.349 11.0351C273.876 9.56113 271.877 8.73203 269.793 8.72968H266.219Z" fill="#E6E6E6"/>
<path d="M266.219 11.946C264.987 11.9475 263.806 12.4374 262.935 13.3084C262.064 14.1793 261.574 15.3602 261.573 16.5919V160.256C261.574 161.488 262.064 162.669 262.935 163.54C263.806 164.411 264.987 164.901 266.219 164.902H269.793C271.024 164.901 272.205 164.411 273.076 163.54C273.947 162.669 274.437 161.488 274.438 160.256V16.5919C274.437 15.3602 273.947 14.1793 273.076 13.3084C272.205 12.4374 271.024 11.9475 269.793 11.946H266.219Z" fill="white"/>
<path d="M324.828 8.72968C322.744 8.73203 320.745 9.56113 319.271 11.0351C317.798 12.509 316.968 14.5074 316.966 16.5919V160.256C316.968 162.341 317.798 164.339 319.271 165.813C320.745 167.287 322.744 168.116 324.828 168.118H328.402C330.486 168.116 332.485 167.287 333.959 165.813C335.433 164.339 336.262 162.341 336.264 160.256V16.5919C336.262 14.5074 335.433 12.509 333.959 11.0351C332.485 9.56113 330.486 8.73203 328.402 8.72968H324.828Z" fill="#E6E6E6"/>
<path d="M324.828 11.946C323.597 11.9475 322.416 12.4374 321.545 13.3084C320.674 14.1793 320.184 15.3602 320.182 16.5919V160.256C320.184 161.488 320.674 162.669 321.545 163.54C322.416 164.411 323.597 164.901 324.828 164.902H328.402C329.634 164.901 330.815 164.411 331.686 163.54C332.556 162.669 333.046 161.488 333.048 160.256V16.5919C333.046 15.3602 332.556 14.1793 331.686 13.3084C330.815 12.4374 329.634 11.9475 328.402 11.946H324.828Z" fill="white"/>
<path d="M103.798 55.21H81.2726C79.3317 55.2078 77.4709 54.4358 76.0985 53.0634C74.726 51.691 73.9541 49.8301 73.9519 47.8892V46.7629C73.9541 44.822 74.726 42.9612 76.0985 41.5888C77.4709 40.2163 79.3317 39.4444 81.2726 39.4422H103.798C105.739 39.4443 107.6 40.2163 108.972 41.5888C110.345 42.9612 111.117 44.822 111.119 46.7629V47.8892C111.117 49.8301 110.345 51.691 108.972 53.0634C107.6 54.4358 105.739 55.2078 103.798 55.21V55.21Z" fill="#BBBBBB"/>
<path d="M163.837 78.7966H141.311C139.371 78.7945 137.51 78.0225 136.137 76.6501C134.765 75.2776 133.993 73.4168 133.991 71.4759V70.3496C133.993 68.4087 134.765 66.5479 136.137 65.1754C137.51 63.803 139.371 63.031 141.311 63.0289H163.837C165.778 63.031 167.639 63.803 169.011 65.1754C170.383 66.5479 171.155 68.4087 171.158 70.3496V71.4759C171.155 73.4168 170.383 75.2776 169.011 76.6501C167.639 78.0225 165.778 78.7945 163.837 78.7966V78.7966Z" fill="#BBBBBB"/>
<path d="M221.017 125.255H198.491C196.55 125.253 194.689 124.481 193.317 123.109C191.945 121.736 191.173 119.875 191.17 117.934V116.808C191.173 114.867 191.945 113.006 193.317 111.634C194.689 110.262 196.55 109.49 198.491 109.487H221.017C222.957 109.49 224.818 110.262 226.191 111.634C227.563 113.006 228.335 114.867 228.337 116.808V117.934C228.335 119.875 227.563 121.736 226.191 123.109C224.818 124.481 222.957 125.253 221.017 125.255V125.255Z" fill="#BBBBBB"/>
<path d="M279.626 40.915H257.101C255.16 40.9128 253.299 40.1409 251.926 38.7684C250.554 37.396 249.782 35.5352 249.78 33.5942V32.468C249.782 30.527 250.554 28.6662 251.926 27.2938C253.299 25.9214 255.16 25.1494 257.101 25.1472H279.626C281.567 25.1494 283.428 25.9213 284.8 27.2938C286.173 28.6662 286.945 30.527 286.947 32.468V33.5942C286.945 35.5352 286.173 37.396 284.8 38.7684C283.428 40.1409 281.567 40.9128 279.626 40.915Z" fill="#BBBBBB"/>
<path d="M338.235 96.6654H315.71C313.769 96.6632 311.908 95.8912 310.536 94.5188C309.163 93.1463 308.391 91.2855 308.389 89.3446V88.2183C308.391 86.2774 309.163 84.4166 310.536 83.0442C311.908 81.6717 313.769 80.8997 315.71 80.8976H338.235C340.176 80.8997 342.037 81.6717 343.409 83.0442C344.782 84.4166 345.554 86.2774 345.556 88.2183V89.3446C345.554 91.2855 344.782 93.1463 343.409 94.5188C342.037 95.8912 340.176 96.6632 338.235 96.6654Z" fill="#BBBBBB"/>
<path d="M92.5351 206C97.6668 206 101.827 201.84 101.827 196.708C101.827 191.577 97.6668 187.417 92.5351 187.417C87.4035 187.417 83.2434 191.577 83.2434 196.708C83.2434 201.84 87.4035 206 92.5351 206Z" fill="#E6E6E6"/>
<path d="M151.145 206C156.276 206 160.436 201.84 160.436 196.708C160.436 191.577 156.276 187.417 151.145 187.417C146.013 187.417 141.853 191.577 141.853 196.708C141.853 201.84 146.013 206 151.145 206Z" fill="#E6E6E6"/>
<path d="M209.754 206C214.886 206 219.046 201.84 219.046 196.708C219.046 191.577 214.886 187.417 209.754 187.417C204.622 187.417 200.462 191.577 200.462 196.708C200.462 201.84 204.622 206 209.754 206Z" fill="#E6E6E6"/>
<path d="M268.363 206C273.495 206 277.655 201.84 277.655 196.708C277.655 191.577 273.495 187.417 268.363 187.417C263.232 187.417 259.072 191.577 259.072 196.708C259.072 201.84 263.232 206 268.363 206Z" fill="#E6E6E6"/>
<path d="M326.972 206C332.104 206 336.264 201.84 336.264 196.708C336.264 191.577 332.104 187.417 326.972 187.417C321.841 187.417 317.681 191.577 317.681 196.708C317.681 201.84 321.841 206 326.972 206Z" fill="#E6E6E6"/>
<path d="M20.5821 0C16.5113 1.41365e-06 12.532 1.20712 9.1473 3.46871C5.76259 5.7303 3.12454 8.9448 1.56673 12.7057C0.00891802 16.4666 -0.398677 20.6049 0.39549 24.5975C1.18966 28.59 3.14991 32.2574 6.02837 35.1358C8.90683 38.0143 12.5742 39.9746 16.5667 40.7687C20.5593 41.5629 24.6977 41.1553 28.4585 39.5975C32.2194 38.0397 35.4339 35.4016 37.6955 32.0169C39.9571 28.6322 41.1642 24.6528 41.1642 20.5821C41.1642 17.8792 40.6318 15.2028 39.5975 12.7057C38.5631 10.2085 37.0471 7.93957 35.1359 6.02835C33.2246 4.11713 30.9557 2.60106 28.4585 1.56672C25.9614 0.532372 23.285 -2.81585e-06 20.5821 0V0ZM20.5821 38.1235C17.1127 38.1235 13.7213 37.0947 10.8366 35.1672C7.95196 33.2398 5.70364 30.5002 4.37598 27.2949C3.04831 24.0896 2.70094 20.5626 3.37778 17.1599C4.05461 13.7572 5.72526 10.6317 8.17847 8.17846C10.6317 5.72525 13.7573 4.05459 17.16 3.37775C20.5627 2.70092 24.0896 3.0483 27.2949 4.37597C30.5002 5.70363 33.2398 7.95195 35.1672 10.8366C37.0947 13.7213 38.1235 17.1127 38.1235 20.5821C38.1235 22.8857 37.6698 25.1667 36.7883 27.2949C35.9067 29.4231 34.6146 31.3569 32.9858 32.9857C31.3569 34.6146 29.4231 35.9067 27.2949 36.7882C25.1667 37.6698 22.8857 38.1235 20.5821 38.1235V38.1235Z" fill="#E6E6E6"/>
<path d="M19.4449 27.621C19.3023 27.621 19.1611 27.5929 19.0294 27.5383C18.8976 27.4837 18.7779 27.4037 18.6771 27.3028L12.8129 21.4386C12.7121 21.3378 12.6321 21.2181 12.5775 21.0863C12.523 20.9546 12.4949 20.8134 12.4949 20.6708C12.4949 20.5282 12.523 20.387 12.5775 20.2553C12.6321 20.1235 12.7121 20.0038 12.8129 19.903C12.9137 19.8022 13.0334 19.7222 13.1652 19.6676C13.2969 19.613 13.4381 19.585 13.5807 19.585C13.7233 19.585 13.8645 19.613 13.9963 19.6676C14.128 19.7222 14.2477 19.8022 14.3485 19.903L19.3177 24.8721L28.1256 12.8612C28.296 12.6289 28.5516 12.4738 28.8363 12.4301C29.121 12.3863 29.4114 12.4573 29.6437 12.6277C29.8759 12.798 30.031 13.0536 30.0748 13.3383C30.1186 13.623 30.0475 13.9134 29.8772 14.1457L20.3207 27.1773C20.2281 27.3035 20.1092 27.4083 19.9724 27.4843C19.8355 27.5604 19.6838 27.606 19.5277 27.618C19.5001 27.6202 19.4723 27.621 19.4449 27.621Z" fill="white"/>
</svg>
