<svg width="345" height="161" viewBox="0 0 345 161" fill="none" xmlns="http://www.w3.org/2000/svg">
<path d="M301.257 30.1963H195.34C194.82 30.1957 194.322 29.9889 193.954 29.6212C193.586 29.2535 193.38 28.7549 193.379 28.2349V1.96142C193.38 1.44141 193.586 0.942867 193.954 0.575161C194.322 0.207456 194.82 0.000610613 195.34 0H301.257C301.777 0.000610613 302.276 0.207456 302.644 0.575161C303.011 0.942867 303.218 1.44141 303.219 1.96142V28.2349C303.218 28.7549 303.011 29.2535 302.644 29.6212C302.276 29.9889 301.777 30.1957 301.257 30.1963V30.1963ZM195.34 0.784555C195.028 0.784896 194.729 0.908998 194.509 1.12963C194.288 1.35026 194.164 1.6494 194.163 1.96141V28.2349C194.164 28.5469 194.288 28.8461 194.509 29.0667C194.729 29.2873 195.028 29.4114 195.34 29.4117H301.257C301.569 29.4114 301.869 29.2873 302.089 29.0667C302.31 28.8461 302.434 28.5469 302.434 28.2349V1.96142C302.434 1.6494 302.31 1.35026 302.089 1.12963C301.869 0.909004 301.569 0.784909 301.257 0.784568L195.34 0.784555Z" fill="white"/>
<path d="M211.798 22.0798C216.21 22.0798 219.787 18.5027 219.787 14.09C219.787 9.67737 216.21 6.10022 211.798 6.10022C207.385 6.10022 203.808 9.67737 203.808 14.09C203.808 18.5027 207.385 22.0798 211.798 22.0798Z" fill="white"/>
<path d="M230.25 8.76355C229.897 8.76355 229.558 8.90385 229.309 9.15358C229.059 9.4033 228.919 9.74201 228.919 10.0952C228.919 10.4484 229.059 10.7871 229.309 11.0368C229.558 11.2865 229.897 11.4268 230.25 11.4268H293.027C293.38 11.4268 293.719 11.2865 293.969 11.0368C294.219 10.7871 294.359 10.4484 294.359 10.0952C294.359 9.74201 294.219 9.4033 293.969 9.15358C293.719 8.90385 293.38 8.76355 293.027 8.76355H230.25Z" fill="#E6E6E6"/>
<path d="M230.25 16.7533C229.897 16.7533 229.558 16.8936 229.309 17.1433C229.059 17.3931 228.919 17.7318 228.919 18.0849C228.919 18.4381 229.059 18.7768 229.309 19.0265C229.558 19.2763 229.897 19.4166 230.25 19.4166H257.263C257.439 19.4169 257.612 19.3827 257.774 19.3159C257.936 19.2491 258.083 19.1511 258.207 19.0274C258.331 18.9037 258.429 18.7568 258.496 18.5951C258.563 18.4334 258.598 18.26 258.598 18.0849C258.598 17.9099 258.563 17.7365 258.496 17.5748C258.429 17.4131 258.331 17.2661 258.207 17.1425C258.083 17.0188 257.936 16.9207 257.774 16.854C257.612 16.7872 257.439 16.753 257.263 16.7533H230.25Z" fill="#E6E6E6"/>
<path d="M107.878 60.4257H1.96143C1.44141 60.4251 0.942874 60.2182 0.575168 59.8505C0.207462 59.4828 0.000610613 58.9843 0 58.4643V32.1908C0.000610613 31.6708 0.207462 31.1722 0.575168 30.8045C0.942874 30.4368 1.44141 30.23 1.96143 30.2294H107.878C108.398 30.23 108.897 30.4368 109.265 30.8045C109.632 31.1722 109.839 31.6708 109.84 32.1908V58.4643C109.839 58.9843 109.632 59.4828 109.265 59.8505C108.897 60.2182 108.398 60.4251 107.878 60.4257V60.4257ZM1.96143 31.0139C1.64941 31.0143 1.35028 31.1384 1.12965 31.359C0.909019 31.5796 0.784908 31.8788 0.784568 32.1908V58.4643C0.784909 58.7763 0.909019 59.0754 1.12965 59.2961C1.35028 59.5167 1.64941 59.6408 1.96143 59.6411H107.878C108.19 59.6408 108.49 59.5167 108.71 59.2961C108.931 59.0754 109.055 58.7763 109.055 58.4643V32.1908C109.055 31.8788 108.931 31.5796 108.71 31.359C108.49 31.1384 108.19 31.0143 107.878 31.0139L1.96143 31.0139Z" fill="white"/>
<path d="M18.4188 52.3092C22.8314 52.3092 26.4086 48.732 26.4086 44.3194C26.4086 39.9067 22.8314 36.3296 18.4188 36.3296C14.0061 36.3296 10.429 39.9067 10.429 44.3194C10.429 48.732 14.0061 52.3092 18.4188 52.3092Z" fill="white"/>
<path d="M36.8714 38.9929C36.5183 38.9929 36.1795 39.1332 35.9298 39.3829C35.6801 39.6327 35.5398 39.9714 35.5398 40.3246C35.5398 40.6777 35.6801 41.0164 35.9298 41.2662C36.1795 41.5159 36.5183 41.6562 36.8714 41.6562H99.6484C100.002 41.6562 100.34 41.5159 100.59 41.2662C100.84 41.0164 100.98 40.6777 100.98 40.3246C100.98 39.9714 100.84 39.6327 100.59 39.3829C100.34 39.1332 100.002 38.9929 99.6484 38.9929H36.8714Z" fill="#E6E6E6"/>
<path d="M36.8714 46.9827C36.5183 46.9827 36.1795 47.123 35.9298 47.3728C35.6801 47.6225 35.5398 47.9612 35.5398 48.3144C35.5398 48.6675 35.6801 49.0062 35.9298 49.256C36.1795 49.5057 36.5183 49.646 36.8714 49.646H63.8846C64.0596 49.6463 64.2331 49.6121 64.3949 49.5453C64.5567 49.4785 64.7038 49.3805 64.8277 49.2568C64.9516 49.1331 65.05 48.9862 65.117 48.8245C65.1841 48.6628 65.2186 48.4894 65.2186 48.3144C65.2186 48.1393 65.1841 47.9659 65.117 47.8042C65.05 47.6425 64.9516 47.4956 64.8277 47.3719C64.7038 47.2482 64.5567 47.1502 64.3949 47.0834C64.2331 47.0166 64.0596 46.9824 63.8846 46.9827H36.8714Z" fill="#E6E6E6"/>
<path d="M53.5291 107.581H100.603C101.123 107.582 101.622 107.788 101.99 108.156C102.357 108.524 102.564 109.022 102.565 109.542V158.568C102.564 159.088 102.357 159.587 101.99 159.955C101.622 160.322 101.123 160.529 100.603 160.53H53.5291C53.009 160.529 52.5105 160.322 52.1428 159.955C51.7751 159.587 51.5682 159.088 51.5676 158.568V109.542C51.5682 109.022 51.7751 108.524 52.1428 108.156C52.5105 107.788 53.009 107.582 53.5291 107.581V107.581ZM100.603 159.745C100.915 159.745 101.215 159.621 101.435 159.4C101.656 159.18 101.78 158.88 101.78 158.568V109.542C101.78 109.23 101.656 108.931 101.435 108.711C101.215 108.49 100.915 108.366 100.603 108.366H53.5291C53.217 108.366 52.9179 108.49 52.6973 108.711C52.4766 108.931 52.3525 109.23 52.3522 109.542V158.568C52.3525 158.88 52.4766 159.18 52.6973 159.4C52.9179 159.621 53.217 159.745 53.5291 159.745H100.603Z" fill="white"/>
<path d="M90.5728 150.42C90.926 150.42 91.2647 150.28 91.5144 150.03C91.7641 149.78 91.9044 149.441 91.9044 149.088C91.9044 148.735 91.7641 148.396 91.5144 148.147C91.2647 147.897 90.926 147.757 90.5728 147.757H63.5597C63.2065 147.757 62.8678 147.897 62.6181 148.147C62.3683 148.396 62.228 148.735 62.228 149.088C62.228 149.441 62.3683 149.78 62.6181 150.03C62.8678 150.28 63.2065 150.42 63.5597 150.42H90.5728Z" fill="#E6E6E6"/>
<path d="M90.5728 142.574C90.926 142.574 91.2647 142.434 91.5144 142.184C91.7641 141.934 91.9044 141.596 91.9044 141.242C91.9044 140.889 91.7641 140.551 91.5144 140.301C91.2647 140.051 90.926 139.911 90.5728 139.911H63.5597C63.2065 139.911 62.8678 140.051 62.6181 140.301C62.3683 140.551 62.228 140.889 62.228 141.242C62.228 141.596 62.3683 141.934 62.6181 142.184C62.8678 142.434 63.2065 142.574 63.5597 142.574H90.5728Z" fill="#E6E6E6"/>
<path d="M77.0661 117.691C78.7239 117.691 80.3445 118.183 81.7229 119.104C83.1013 120.025 84.1757 121.334 84.8101 122.865C85.4445 124.397 85.6105 126.082 85.2871 127.708C84.9637 129.334 84.1653 130.828 82.9931 132C81.8208 133.172 80.3273 133.971 78.7014 134.294C77.0754 134.618 75.3901 134.452 73.8585 133.817C72.3268 133.183 71.0177 132.108 70.0967 130.73C69.1757 129.352 68.6841 127.731 68.6841 126.073C68.6866 123.851 69.5705 121.72 71.1419 120.149C72.7133 118.578 74.8438 117.694 77.0661 117.691Z" fill="white"/>
<path d="M109.419 43.5099C111.189 42.4298 108.272 43.7702 109.64 43.5346C117.207 39.8278 125.422 37.5709 133.858 36.9021C144.443 36.0826 155.07 37.8233 164.84 41.977C169.752 44.0564 174.398 46.7158 178.678 49.8988C183.039 53.146 186.88 56.9731 190.54 60.9797C194.247 65.0385 197.801 69.2426 201.713 73.1106C212.866 84.2636 227.472 91.306 243.144 93.0878C244.439 93.2343 245.737 93.3429 247.038 93.4137C247.744 93.4532 247.871 92.358 247.161 92.3182C231.083 91.4167 215.835 84.8892 204.085 73.8785C200.01 70.0588 196.375 65.8055 192.642 61.6605C189.023 57.6419 185.285 53.7085 181.047 50.3316C170.681 42.0652 158.111 37.0339 144.904 35.8656C131.698 34.6973 119.737 37.2206 109.99 42.3962C108.882 42.9967 110.328 42.3259 109.254 42.9851C109.45 43.6262 108.821 43.8768 109.419 43.5099Z" fill="white"/>
<path d="M248.257 98.4297C251.421 98.4297 253.985 95.865 253.985 92.7013C253.985 89.5376 251.421 86.973 248.257 86.973C245.093 86.973 242.529 89.5376 242.529 92.7013C242.529 95.865 245.093 98.4297 248.257 98.4297Z" fill="white"/>
<path d="M342.593 105.777H249.123C248.603 105.776 248.104 105.569 247.737 105.201C247.369 104.834 247.162 104.335 247.162 103.815V55.1815C247.162 54.6615 247.369 54.1629 247.737 53.7952C248.104 53.4275 248.603 53.2206 249.123 53.22H342.593C343.113 53.2206 343.611 53.4275 343.979 53.7952C344.347 54.1629 344.553 54.6614 344.554 55.1815V103.815C344.554 104.335 344.347 104.834 343.979 105.201C343.611 105.569 343.113 105.776 342.593 105.777ZM249.123 54.0046C248.811 54.005 248.512 54.1291 248.291 54.3497C248.071 54.5703 247.947 54.8695 247.946 55.1815V103.815C247.947 104.127 248.071 104.426 248.291 104.647C248.512 104.868 248.811 104.992 249.123 104.992H342.593C342.905 104.992 343.204 104.868 343.424 104.647C343.645 104.426 343.769 104.127 343.77 103.815V55.1815C343.769 54.8695 343.645 54.5703 343.424 54.3497C343.204 54.1291 342.905 54.005 342.593 54.0046H249.123Z" fill="white"/>
<path d="M264.796 78.4382C269.208 78.4382 272.786 74.861 272.786 70.4484C272.786 66.0357 269.208 62.4586 264.796 62.4586C260.383 62.4586 256.806 66.0357 256.806 70.4484C256.806 74.861 260.383 78.4382 264.796 78.4382Z" fill="white"/>
<path d="M283.248 65.1218C283.073 65.1215 282.9 65.1557 282.738 65.2225C282.576 65.2893 282.429 65.3873 282.305 65.511C282.181 65.6347 282.083 65.7816 282.016 65.9433C281.949 66.105 281.914 66.2784 281.914 66.4535C281.914 66.6285 281.949 66.8019 282.016 66.9636C282.083 67.1253 282.181 67.2722 282.305 67.3959C282.429 67.5196 282.576 67.6177 282.738 67.6844C282.9 67.7512 283.073 67.7854 283.248 67.7851H333.578C333.931 67.7851 334.27 67.6448 334.52 67.3951C334.769 67.1453 334.91 66.8066 334.91 66.4535C334.91 66.1003 334.769 65.7616 334.52 65.5119C334.27 65.2621 333.931 65.1218 333.578 65.1218H283.248Z" fill="#E6E6E6"/>
<path d="M283.248 73.1117C283.073 73.1114 282.9 73.1456 282.738 73.2124C282.576 73.2791 282.429 73.3772 282.305 73.5009C282.181 73.6246 282.083 73.7714 282.016 73.9332C281.949 74.0949 281.914 74.2682 281.914 74.4433C281.914 74.6184 281.949 74.7918 282.016 74.9535C282.083 75.1152 282.181 75.2621 282.305 75.3858C282.429 75.5095 282.576 75.6075 282.738 75.6743C282.9 75.7411 283.073 75.7753 283.248 75.775H310.262C310.615 75.775 310.953 75.6347 311.203 75.3849C311.453 75.1352 311.593 74.7965 311.593 74.4433C311.593 74.0902 311.453 73.7515 311.203 73.5017C310.953 73.252 310.615 73.1117 310.262 73.1117H283.248Z" fill="#E6E6E6"/>
<path d="M258.668 85.885C257.655 85.885 256.83 86.4825 256.83 87.2166C256.83 87.9508 257.655 88.5483 258.668 88.5483H332.833C333.846 88.5483 334.67 87.9508 334.67 87.2166C334.67 86.4825 333.846 85.885 332.833 85.885H258.668Z" fill="#E6E6E6"/>
<path d="M258.668 93.8749C257.655 93.8749 256.83 94.4723 256.83 95.2065C256.83 95.9407 257.655 96.5381 258.668 96.5381H332.833C333.846 96.5381 334.67 95.9407 334.67 95.2065C334.67 94.4723 333.846 93.8749 332.833 93.8749H258.668Z" fill="#E6E6E6"/>
<path d="M177.283 98.0344C182.556 95.7469 188.444 97.7412 193.414 99.8496C195.974 100.935 198.506 102.094 201.155 102.952C203.384 103.671 205.666 104.212 207.981 104.569C212.625 105.281 217.349 105.31 222.002 104.655C226.678 104.003 231.235 102.678 235.532 100.721C239.805 98.784 243.755 96.2018 247.243 93.0644C247.687 92.6636 248.122 92.2536 248.548 91.8344C249.056 91.3371 248.276 90.5579 247.769 91.0549C244.41 94.3289 240.554 97.0508 236.345 99.1194C232.152 101.181 227.681 102.618 223.072 103.383C218.448 104.163 213.734 104.244 209.086 103.625C206.767 103.311 204.477 102.813 202.238 102.136C199.665 101.299 197.142 100.319 194.679 99.2006C189.663 97.0461 184.089 94.9364 178.576 96.4223C177.945 96.597 177.326 96.8177 176.727 97.0826C176.078 97.3642 176.638 98.3141 177.283 98.0344V98.0344Z" fill="white"/>
<path d="M175.246 111.554H131.086L141.478 93.5534C141.665 93.2307 141.933 92.9628 142.255 92.7765C142.578 92.5903 142.944 92.4922 143.316 92.4922C143.689 92.4922 144.055 92.5903 144.377 92.7765C144.7 92.9628 144.968 93.2307 145.154 93.5534L149.594 101.243L157.142 88.1683C157.375 87.7643 157.711 87.4289 158.115 87.1957C158.519 86.9625 158.977 86.8397 159.443 86.8397C159.91 86.8397 160.368 86.9625 160.772 87.1957C161.176 87.4289 161.511 87.7643 161.744 88.1683L175.246 111.554Z" fill="white"/>
<path d="M175.288 111.549H128.213C127.693 111.548 127.195 111.341 126.827 110.974C126.459 110.606 126.253 110.107 126.252 109.587V83.314C126.253 82.794 126.459 82.2954 126.827 81.9277C127.195 81.56 127.693 81.3531 128.213 81.3525H175.288C175.808 81.3531 176.306 81.56 176.674 81.9277C177.042 82.2954 177.248 82.794 177.249 83.314V109.587C177.248 110.107 177.042 110.606 176.674 110.974C176.306 111.341 175.808 111.548 175.288 111.549ZM128.213 82.1371C127.901 82.1375 127.602 82.2616 127.382 82.4822C127.161 82.7028 127.037 83.0019 127.037 83.314V109.587C127.037 109.899 127.161 110.199 127.382 110.419C127.602 110.64 127.901 110.764 128.213 110.764H175.288C175.6 110.764 175.899 110.64 176.119 110.419C176.34 110.199 176.464 109.899 176.465 109.587V83.314C176.464 83.0019 176.34 82.7028 176.119 82.4822C175.899 82.2616 175.6 82.1375 175.288 82.1371H128.213Z" fill="white"/>
</svg>
